%TF.GenerationSoftware,KiCad,Pcbnew,8.0.5*%
%TF.CreationDate,2024-12-30T19:02:22+01:00*%
%TF.ProjectId,ledPowerConnector,6c656450-6f77-4657-9243-6f6e6e656374,rev?*%
%TF.SameCoordinates,Original*%
%TF.FileFunction,Copper,L2,Bot*%
%TF.FilePolarity,Positive*%
%FSLAX46Y46*%
G04 Gerber Fmt 4.6, Leading zero omitted, Abs format (unit mm)*
G04 Created by KiCad (PCBNEW 8.0.5) date 2024-12-30 19:02:22*
%MOMM*%
%LPD*%
G01*
G04 APERTURE LIST*
%TA.AperFunction,ComponentPad*%
%ADD10C,2.200000*%
%TD*%
%TA.AperFunction,ComponentPad*%
%ADD11R,2.000000X4.600000*%
%TD*%
%TA.AperFunction,ComponentPad*%
%ADD12O,4.200000X2.000000*%
%TD*%
%TA.AperFunction,ComponentPad*%
%ADD13O,2.000000X4.200000*%
%TD*%
G04 APERTURE END LIST*
D10*
%TO.P,J6,1,Pin_1*%
%TO.N,/V+*%
X145500000Y-107500000D03*
%TD*%
D11*
%TO.P,J3,1*%
%TO.N,/V+*%
X126500000Y-110500000D03*
D12*
%TO.P,J3,2*%
%TO.N,unconnected-(J3-Pad2)*%
X123600000Y-115300000D03*
D13*
%TO.P,J3,3*%
%TO.N,/V-*%
X120200000Y-110500000D03*
%TD*%
D11*
%TO.P,J2,1*%
%TO.N,/V+*%
X170500000Y-111500000D03*
D12*
%TO.P,J2,2*%
%TO.N,unconnected-(J2-Pad2)*%
X173400000Y-106700000D03*
D13*
%TO.P,J2,3*%
%TO.N,/V-*%
X176800000Y-111500000D03*
%TD*%
D11*
%TO.P,J4,1*%
%TO.N,/V+*%
X126500000Y-98500000D03*
D12*
%TO.P,J4,2*%
%TO.N,unconnected-(J4-Pad2)*%
X123600000Y-103300000D03*
D13*
%TO.P,J4,3*%
%TO.N,/V-*%
X120200000Y-98500000D03*
%TD*%
D11*
%TO.P,J1,1*%
%TO.N,/V+*%
X170500000Y-99500000D03*
D12*
%TO.P,J1,2*%
%TO.N,unconnected-(J1-Pad2)*%
X173400000Y-94700000D03*
D13*
%TO.P,J1,3*%
%TO.N,/V-*%
X176800000Y-99500000D03*
%TD*%
D10*
%TO.P,J5,1,Pin_1*%
%TO.N,/V-*%
X140500000Y-107500000D03*
%TD*%
%TA.AperFunction,Conductor*%
%TO.N,/V-*%
G36*
X170923365Y-93519454D02*
G01*
X171004147Y-93573430D01*
X171058123Y-93654212D01*
X171077077Y-93749500D01*
X171058123Y-93844788D01*
X171029523Y-93895858D01*
X171016659Y-93913563D01*
X170909430Y-94124012D01*
X170836446Y-94348635D01*
X170799501Y-94581896D01*
X170799500Y-94581912D01*
X170799500Y-94818087D01*
X170799501Y-94818103D01*
X170836446Y-95051364D01*
X170836447Y-95051368D01*
X170909432Y-95275992D01*
X170966222Y-95387448D01*
X171016659Y-95486437D01*
X171155478Y-95677504D01*
X171155480Y-95677506D01*
X171155483Y-95677510D01*
X171322490Y-95844517D01*
X171322493Y-95844519D01*
X171322495Y-95844521D01*
X171513562Y-95983340D01*
X171513564Y-95983341D01*
X171513567Y-95983343D01*
X171724008Y-96090568D01*
X171948632Y-96163553D01*
X172181908Y-96200500D01*
X172181912Y-96200500D01*
X174618088Y-96200500D01*
X174618092Y-96200500D01*
X174851368Y-96163553D01*
X175075992Y-96090568D01*
X175286433Y-95983343D01*
X175477510Y-95844517D01*
X175644517Y-95677510D01*
X175783343Y-95486433D01*
X175890568Y-95275992D01*
X175963553Y-95051368D01*
X176000500Y-94818092D01*
X176000500Y-94581908D01*
X175963553Y-94348632D01*
X175890568Y-94124008D01*
X175783343Y-93913567D01*
X175770477Y-93895858D01*
X175729803Y-93807627D01*
X175725989Y-93710547D01*
X175759616Y-93619397D01*
X175825565Y-93548054D01*
X175913796Y-93507380D01*
X175971923Y-93500500D01*
X181934108Y-93500500D01*
X181992472Y-93500500D01*
X182007505Y-93500954D01*
X182020011Y-93501710D01*
X182286261Y-93517815D01*
X182316088Y-93521437D01*
X182583363Y-93570417D01*
X182612546Y-93577610D01*
X182871956Y-93658446D01*
X182900059Y-93669103D01*
X183147845Y-93780623D01*
X183174464Y-93794594D01*
X183406989Y-93935161D01*
X183431734Y-93952241D01*
X183645616Y-94119806D01*
X183668123Y-94139745D01*
X183860254Y-94331876D01*
X183880193Y-94354383D01*
X184047758Y-94568265D01*
X184064838Y-94593010D01*
X184205405Y-94825535D01*
X184219379Y-94852160D01*
X184330893Y-95099934D01*
X184341555Y-95128049D01*
X184422387Y-95387448D01*
X184429583Y-95416642D01*
X184478560Y-95683899D01*
X184482185Y-95713749D01*
X184499046Y-95992494D01*
X184499500Y-96007528D01*
X184499500Y-113992471D01*
X184499046Y-114007505D01*
X184482185Y-114286250D01*
X184478560Y-114316100D01*
X184429583Y-114583357D01*
X184422387Y-114612551D01*
X184341555Y-114871950D01*
X184330893Y-114900065D01*
X184219379Y-115147839D01*
X184205405Y-115174464D01*
X184064838Y-115406989D01*
X184047758Y-115431734D01*
X183880193Y-115645616D01*
X183860254Y-115668123D01*
X183668123Y-115860254D01*
X183645616Y-115880193D01*
X183431734Y-116047758D01*
X183406989Y-116064838D01*
X183174464Y-116205405D01*
X183147839Y-116219379D01*
X182900065Y-116330893D01*
X182871950Y-116341555D01*
X182612551Y-116422387D01*
X182583357Y-116429583D01*
X182316100Y-116478560D01*
X182286250Y-116482185D01*
X182007506Y-116499046D01*
X181992472Y-116499500D01*
X126171923Y-116499500D01*
X126076635Y-116480546D01*
X125995853Y-116426570D01*
X125941877Y-116345788D01*
X125922923Y-116250500D01*
X125941877Y-116155212D01*
X125970477Y-116104142D01*
X125974562Y-116098518D01*
X125983343Y-116086433D01*
X126090568Y-115875992D01*
X126163553Y-115651368D01*
X126200500Y-115418092D01*
X126200500Y-115181908D01*
X126163553Y-114948632D01*
X126090568Y-114724008D01*
X125983343Y-114513567D01*
X125983341Y-114513564D01*
X125983340Y-114513562D01*
X125844521Y-114322495D01*
X125844519Y-114322493D01*
X125844517Y-114322490D01*
X125677510Y-114155483D01*
X125677506Y-114155480D01*
X125677504Y-114155478D01*
X125486437Y-114016659D01*
X125324421Y-113934108D01*
X125275992Y-113909432D01*
X125275989Y-113909431D01*
X125275987Y-113909430D01*
X125151079Y-113868845D01*
X125051368Y-113836447D01*
X125051366Y-113836446D01*
X125051364Y-113836446D01*
X124818103Y-113799501D01*
X124818094Y-113799500D01*
X124818092Y-113799500D01*
X122381908Y-113799500D01*
X122381905Y-113799500D01*
X122381896Y-113799501D01*
X122148635Y-113836446D01*
X121924012Y-113909430D01*
X121713562Y-114016659D01*
X121522495Y-114155478D01*
X121355478Y-114322495D01*
X121216659Y-114513562D01*
X121109430Y-114724012D01*
X121036446Y-114948635D01*
X120999501Y-115181896D01*
X120999500Y-115181912D01*
X120999500Y-115418087D01*
X120999501Y-115418103D01*
X121012229Y-115498462D01*
X121036447Y-115651368D01*
X121109432Y-115875992D01*
X121201685Y-116057048D01*
X121216659Y-116086436D01*
X121229523Y-116104142D01*
X121270197Y-116192373D01*
X121274011Y-116289453D01*
X121240384Y-116380603D01*
X121174435Y-116451946D01*
X121086204Y-116492620D01*
X121028077Y-116499500D01*
X115007528Y-116499500D01*
X114992494Y-116499046D01*
X114713749Y-116482185D01*
X114683899Y-116478560D01*
X114416642Y-116429583D01*
X114387448Y-116422387D01*
X114128049Y-116341555D01*
X114099934Y-116330893D01*
X113852160Y-116219379D01*
X113825535Y-116205405D01*
X113593010Y-116064838D01*
X113568265Y-116047758D01*
X113354383Y-115880193D01*
X113331876Y-115860254D01*
X113139745Y-115668123D01*
X113119806Y-115645616D01*
X112952241Y-115431734D01*
X112935161Y-115406989D01*
X112807421Y-115195682D01*
X112794593Y-115174463D01*
X112780620Y-115147839D01*
X112690964Y-114948632D01*
X112669103Y-114900059D01*
X112658444Y-114871950D01*
X112612343Y-114724008D01*
X112577610Y-114612546D01*
X112570416Y-114583357D01*
X112557752Y-114514250D01*
X112521437Y-114316088D01*
X112517815Y-114286261D01*
X112500954Y-114007504D01*
X112500500Y-113992471D01*
X112500500Y-108152123D01*
X124999500Y-108152123D01*
X124999500Y-112847865D01*
X124999500Y-112847868D01*
X124999501Y-112847872D01*
X125001567Y-112867093D01*
X125005908Y-112907480D01*
X125005909Y-112907483D01*
X125056204Y-113042331D01*
X125142454Y-113157546D01*
X125257669Y-113243796D01*
X125392517Y-113294091D01*
X125452127Y-113300500D01*
X127547872Y-113300499D01*
X127607483Y-113294091D01*
X127742331Y-113243796D01*
X127857546Y-113157546D01*
X127943796Y-113042331D01*
X127994091Y-112907483D01*
X128000500Y-112847873D01*
X128000499Y-109152123D01*
X168999500Y-109152123D01*
X168999500Y-113847865D01*
X168999500Y-113847868D01*
X168999501Y-113847872D01*
X169001567Y-113867093D01*
X169005908Y-113907480D01*
X169005909Y-113907484D01*
X169046628Y-114016657D01*
X169056204Y-114042331D01*
X169142454Y-114157546D01*
X169257669Y-114243796D01*
X169392517Y-114294091D01*
X169452127Y-114300500D01*
X171547872Y-114300499D01*
X171607483Y-114294091D01*
X171742331Y-114243796D01*
X171857546Y-114157546D01*
X171943796Y-114042331D01*
X171994091Y-113907483D01*
X172000500Y-113847873D01*
X172000499Y-109152128D01*
X171994091Y-109092517D01*
X171943796Y-108957669D01*
X171857546Y-108842454D01*
X171742331Y-108756204D01*
X171662117Y-108726286D01*
X171607481Y-108705908D01*
X171547873Y-108699500D01*
X169452134Y-108699500D01*
X169452130Y-108699500D01*
X169452128Y-108699501D01*
X169439314Y-108700878D01*
X169392519Y-108705908D01*
X169392515Y-108705909D01*
X169257670Y-108756203D01*
X169142455Y-108842453D01*
X169142453Y-108842455D01*
X169056204Y-108957669D01*
X169005908Y-109092518D01*
X168999500Y-109152123D01*
X128000499Y-109152123D01*
X128000499Y-108152128D01*
X127994091Y-108092517D01*
X127943796Y-107957669D01*
X127857546Y-107842454D01*
X127742331Y-107756204D01*
X127662117Y-107726286D01*
X127607481Y-107705908D01*
X127547873Y-107699500D01*
X125452134Y-107699500D01*
X125452130Y-107699500D01*
X125452128Y-107699501D01*
X125439314Y-107700878D01*
X125392519Y-107705908D01*
X125392515Y-107705909D01*
X125257670Y-107756203D01*
X125142455Y-107842453D01*
X125142453Y-107842455D01*
X125056204Y-107957669D01*
X125005908Y-108092518D01*
X124999500Y-108152123D01*
X112500500Y-108152123D01*
X112500500Y-107499994D01*
X143894551Y-107499994D01*
X143894551Y-107500005D01*
X143914316Y-107751145D01*
X143973126Y-107996108D01*
X143973129Y-107996116D01*
X144069533Y-108228858D01*
X144069537Y-108228864D01*
X144201158Y-108443652D01*
X144201160Y-108443654D01*
X144201163Y-108443657D01*
X144201164Y-108443659D01*
X144364776Y-108635224D01*
X144556341Y-108798836D01*
X144556345Y-108798839D01*
X144556347Y-108798841D01*
X144728971Y-108904624D01*
X144771141Y-108930466D01*
X145003889Y-109026873D01*
X145248852Y-109085683D01*
X145320608Y-109091330D01*
X145499995Y-109105449D01*
X145500000Y-109105449D01*
X145500005Y-109105449D01*
X145664340Y-109092515D01*
X145751148Y-109085683D01*
X145996111Y-109026873D01*
X146228859Y-108930466D01*
X146350974Y-108855633D01*
X146443652Y-108798841D01*
X146443654Y-108798839D01*
X146443653Y-108798839D01*
X146443659Y-108798836D01*
X146635224Y-108635224D01*
X146798836Y-108443659D01*
X146798839Y-108443653D01*
X146798841Y-108443652D01*
X146855633Y-108350974D01*
X146930466Y-108228859D01*
X147026873Y-107996111D01*
X147085683Y-107751148D01*
X147105449Y-107500000D01*
X147104381Y-107486433D01*
X147085683Y-107248854D01*
X147038272Y-107051368D01*
X147026873Y-107003889D01*
X146930466Y-106771141D01*
X146904624Y-106728971D01*
X146814507Y-106581912D01*
X170799500Y-106581912D01*
X170799500Y-106818087D01*
X170799501Y-106818103D01*
X170836446Y-107051364D01*
X170900613Y-107248852D01*
X170909432Y-107275992D01*
X171009683Y-107472747D01*
X171016659Y-107486437D01*
X171155478Y-107677504D01*
X171155480Y-107677506D01*
X171155483Y-107677510D01*
X171322490Y-107844517D01*
X171322493Y-107844519D01*
X171322495Y-107844521D01*
X171513562Y-107983340D01*
X171513564Y-107983341D01*
X171513567Y-107983343D01*
X171724008Y-108090568D01*
X171948632Y-108163553D01*
X172181908Y-108200500D01*
X172181912Y-108200500D01*
X174618088Y-108200500D01*
X174618092Y-108200500D01*
X174851368Y-108163553D01*
X175075992Y-108090568D01*
X175286433Y-107983343D01*
X175477510Y-107844517D01*
X175644517Y-107677510D01*
X175783343Y-107486433D01*
X175890568Y-107275992D01*
X175963553Y-107051368D01*
X176000500Y-106818092D01*
X176000500Y-106581908D01*
X175963553Y-106348632D01*
X175890568Y-106124008D01*
X175783343Y-105913567D01*
X175783341Y-105913564D01*
X175783340Y-105913562D01*
X175644521Y-105722495D01*
X175644519Y-105722493D01*
X175644517Y-105722490D01*
X175477510Y-105555483D01*
X175477506Y-105555480D01*
X175477504Y-105555478D01*
X175286437Y-105416659D01*
X175272747Y-105409683D01*
X175075992Y-105309432D01*
X175075989Y-105309431D01*
X175075987Y-105309430D01*
X174951079Y-105268845D01*
X174851368Y-105236447D01*
X174851366Y-105236446D01*
X174851364Y-105236446D01*
X174618103Y-105199501D01*
X174618094Y-105199500D01*
X174618092Y-105199500D01*
X172181908Y-105199500D01*
X172181905Y-105199500D01*
X172181896Y-105199501D01*
X171948635Y-105236446D01*
X171724012Y-105309430D01*
X171513562Y-105416659D01*
X171322495Y-105555478D01*
X171155478Y-105722495D01*
X171016659Y-105913562D01*
X170909430Y-106124012D01*
X170836446Y-106348635D01*
X170799501Y-106581896D01*
X170799500Y-106581912D01*
X146814507Y-106581912D01*
X146798841Y-106556347D01*
X146798839Y-106556345D01*
X146798836Y-106556341D01*
X146635224Y-106364776D01*
X146443659Y-106201164D01*
X146443657Y-106201163D01*
X146443654Y-106201160D01*
X146443652Y-106201158D01*
X146228864Y-106069537D01*
X146228858Y-106069533D01*
X145996116Y-105973129D01*
X145996108Y-105973126D01*
X145751145Y-105914316D01*
X145500005Y-105894551D01*
X145499995Y-105894551D01*
X145248854Y-105914316D01*
X145003891Y-105973126D01*
X145003883Y-105973129D01*
X144771141Y-106069533D01*
X144771135Y-106069537D01*
X144556347Y-106201158D01*
X144556345Y-106201160D01*
X144364779Y-106364773D01*
X144364773Y-106364779D01*
X144201160Y-106556345D01*
X144201158Y-106556347D01*
X144069537Y-106771135D01*
X144069533Y-106771141D01*
X143973129Y-107003883D01*
X143973126Y-107003891D01*
X143914316Y-107248854D01*
X143894551Y-107499994D01*
X112500500Y-107499994D01*
X112500500Y-103181912D01*
X120999500Y-103181912D01*
X120999500Y-103418087D01*
X120999501Y-103418103D01*
X121036446Y-103651364D01*
X121036447Y-103651368D01*
X121109432Y-103875992D01*
X121209683Y-104072747D01*
X121216659Y-104086437D01*
X121355478Y-104277504D01*
X121355480Y-104277506D01*
X121355483Y-104277510D01*
X121522490Y-104444517D01*
X121522493Y-104444519D01*
X121522495Y-104444521D01*
X121713562Y-104583340D01*
X121713564Y-104583341D01*
X121713567Y-104583343D01*
X121924008Y-104690568D01*
X122148632Y-104763553D01*
X122381908Y-104800500D01*
X122381912Y-104800500D01*
X124818088Y-104800500D01*
X124818092Y-104800500D01*
X125051368Y-104763553D01*
X125275992Y-104690568D01*
X125486433Y-104583343D01*
X125677510Y-104444517D01*
X125844517Y-104277510D01*
X125983343Y-104086433D01*
X126090568Y-103875992D01*
X126163553Y-103651368D01*
X126200500Y-103418092D01*
X126200500Y-103181908D01*
X126163553Y-102948632D01*
X126090568Y-102724008D01*
X125983343Y-102513567D01*
X125983341Y-102513564D01*
X125983340Y-102513562D01*
X125844521Y-102322495D01*
X125844519Y-102322493D01*
X125844517Y-102322490D01*
X125677510Y-102155483D01*
X125677506Y-102155480D01*
X125677504Y-102155478D01*
X125486437Y-102016659D01*
X125472747Y-102009683D01*
X125275992Y-101909432D01*
X125275989Y-101909431D01*
X125275987Y-101909430D01*
X125151079Y-101868845D01*
X125051368Y-101836447D01*
X125051366Y-101836446D01*
X125051364Y-101836446D01*
X124818103Y-101799501D01*
X124818094Y-101799500D01*
X124818092Y-101799500D01*
X122381908Y-101799500D01*
X122381905Y-101799500D01*
X122381896Y-101799501D01*
X122148635Y-101836446D01*
X121924012Y-101909430D01*
X121713562Y-102016659D01*
X121522495Y-102155478D01*
X121355478Y-102322495D01*
X121216659Y-102513562D01*
X121109430Y-102724012D01*
X121036446Y-102948635D01*
X120999501Y-103181896D01*
X120999500Y-103181912D01*
X112500500Y-103181912D01*
X112500500Y-96152123D01*
X124999500Y-96152123D01*
X124999500Y-100847865D01*
X124999500Y-100847868D01*
X124999501Y-100847872D01*
X125001567Y-100867093D01*
X125005908Y-100907480D01*
X125005909Y-100907483D01*
X125056204Y-101042331D01*
X125142454Y-101157546D01*
X125257669Y-101243796D01*
X125392517Y-101294091D01*
X125452127Y-101300500D01*
X127547872Y-101300499D01*
X127607483Y-101294091D01*
X127742331Y-101243796D01*
X127857546Y-101157546D01*
X127943796Y-101042331D01*
X127994091Y-100907483D01*
X128000500Y-100847873D01*
X128000499Y-97152123D01*
X168999500Y-97152123D01*
X168999500Y-101847865D01*
X168999500Y-101847868D01*
X168999501Y-101847872D01*
X169001567Y-101867093D01*
X169005908Y-101907480D01*
X169005909Y-101907483D01*
X169056204Y-102042331D01*
X169142454Y-102157546D01*
X169257669Y-102243796D01*
X169392517Y-102294091D01*
X169452127Y-102300500D01*
X171547872Y-102300499D01*
X171607483Y-102294091D01*
X171742331Y-102243796D01*
X171857546Y-102157546D01*
X171943796Y-102042331D01*
X171994091Y-101907483D01*
X172000500Y-101847873D01*
X172000499Y-97152128D01*
X171994091Y-97092517D01*
X171943796Y-96957669D01*
X171857546Y-96842454D01*
X171742331Y-96756204D01*
X171662117Y-96726286D01*
X171607481Y-96705908D01*
X171547873Y-96699500D01*
X169452134Y-96699500D01*
X169452130Y-96699500D01*
X169452128Y-96699501D01*
X169439314Y-96700878D01*
X169392519Y-96705908D01*
X169392515Y-96705909D01*
X169257670Y-96756203D01*
X169142455Y-96842453D01*
X169142453Y-96842455D01*
X169056204Y-96957669D01*
X169005908Y-97092518D01*
X168999500Y-97152123D01*
X128000499Y-97152123D01*
X128000499Y-96152128D01*
X127994091Y-96092517D01*
X127943796Y-95957669D01*
X127857546Y-95842454D01*
X127742331Y-95756204D01*
X127628506Y-95713750D01*
X127607481Y-95705908D01*
X127547873Y-95699500D01*
X125452134Y-95699500D01*
X125452130Y-95699500D01*
X125452128Y-95699501D01*
X125439314Y-95700878D01*
X125392519Y-95705908D01*
X125392515Y-95705909D01*
X125257670Y-95756203D01*
X125142455Y-95842453D01*
X125142453Y-95842455D01*
X125056204Y-95957669D01*
X125005908Y-96092518D01*
X124999500Y-96152123D01*
X112500500Y-96152123D01*
X112500500Y-96007528D01*
X112500954Y-95992495D01*
X112503060Y-95957670D01*
X112517815Y-95713736D01*
X112521437Y-95683913D01*
X112570418Y-95416632D01*
X112577609Y-95387457D01*
X112658448Y-95128037D01*
X112669101Y-95099945D01*
X112780626Y-94852147D01*
X112794589Y-94825543D01*
X112935161Y-94593010D01*
X112952241Y-94568265D01*
X113119813Y-94354374D01*
X113139737Y-94331884D01*
X113331884Y-94139737D01*
X113354374Y-94119813D01*
X113568268Y-93952238D01*
X113593010Y-93935161D01*
X113658025Y-93895858D01*
X113825543Y-93794589D01*
X113852147Y-93780626D01*
X114099945Y-93669101D01*
X114128037Y-93658448D01*
X114387457Y-93577609D01*
X114416632Y-93570418D01*
X114683913Y-93521437D01*
X114713736Y-93517815D01*
X114980895Y-93501655D01*
X114992495Y-93500954D01*
X115007528Y-93500500D01*
X115065892Y-93500500D01*
X170828077Y-93500500D01*
X170923365Y-93519454D01*
G37*
%TD.AperFunction*%
%TD*%
M02*
