%TF.GenerationSoftware,KiCad,Pcbnew,8.0.5*%
%TF.CreationDate,2024-12-30T19:02:22+01:00*%
%TF.ProjectId,ledPowerConnector,6c656450-6f77-4657-9243-6f6e6e656374,rev?*%
%TF.SameCoordinates,Original*%
%TF.FileFunction,Legend,Bot*%
%TF.FilePolarity,Positive*%
%FSLAX46Y46*%
G04 Gerber Fmt 4.6, Leading zero omitted, Abs format (unit mm)*
G04 Created by KiCad (PCBNEW 8.0.5) date 2024-12-30 19:02:22*
%MOMM*%
%LPD*%
G01*
G04 APERTURE LIST*
%ADD10C,0.500000*%
%ADD11C,0.450000*%
%ADD12C,0.150000*%
G04 APERTURE END LIST*
D10*
X112250000Y-96000000D02*
G75*
G02*
X115000000Y-93250000I2750000J0D01*
G01*
X129000000Y-93250000D02*
X129000000Y-116750000D01*
X184750000Y-105004000D02*
X168000000Y-105004000D01*
X184750000Y-114000000D02*
G75*
G02*
X182000000Y-116750000I-2750000J0D01*
G01*
X115000000Y-116750000D02*
X129000000Y-116750000D01*
X168000000Y-116750000D02*
X182000000Y-116750000D01*
X184750000Y-114000000D02*
X184750000Y-105000000D01*
X115000000Y-116750000D02*
G75*
G02*
X112250000Y-114000000I0J2750000D01*
G01*
X182000000Y-93250000D02*
G75*
G02*
X184750000Y-96000000I0J-2750000D01*
G01*
X112250000Y-105000000D02*
X112250000Y-96000000D01*
X129000000Y-116750000D02*
X168000000Y-116750000D01*
X129000000Y-93250000D02*
X115000000Y-93250000D01*
X129000000Y-105004000D02*
X112250000Y-105004000D01*
X168000000Y-93250000D02*
X182000000Y-93250000D01*
X112250000Y-105000000D02*
X112250000Y-114000000D01*
X184750000Y-96000000D02*
X184750000Y-105000000D01*
X168000000Y-93250000D02*
X168000000Y-116750000D01*
X129000000Y-93250000D02*
X168000000Y-93250000D01*
D11*
X180642856Y-100364457D02*
X182357142Y-100364457D01*
X181499999Y-100364457D02*
X181499999Y-97364457D01*
X181499999Y-97364457D02*
X181785713Y-97793028D01*
X181785713Y-97793028D02*
X182071428Y-98078742D01*
X182071428Y-98078742D02*
X182357142Y-98221600D01*
D12*
X153399998Y-99502553D02*
X153733331Y-99502553D01*
X153733331Y-99502553D02*
X153733331Y-98802553D01*
X153166664Y-99135886D02*
X152933331Y-99135886D01*
X152833331Y-99502553D02*
X153166664Y-99502553D01*
X153166664Y-99502553D02*
X153166664Y-98802553D01*
X153166664Y-98802553D02*
X152833331Y-98802553D01*
X152533331Y-99502553D02*
X152533331Y-98802553D01*
X152533331Y-98802553D02*
X152366664Y-98802553D01*
X152366664Y-98802553D02*
X152266664Y-98835886D01*
X152266664Y-98835886D02*
X152199998Y-98902553D01*
X152199998Y-98902553D02*
X152166664Y-98969220D01*
X152166664Y-98969220D02*
X152133331Y-99102553D01*
X152133331Y-99102553D02*
X152133331Y-99202553D01*
X152133331Y-99202553D02*
X152166664Y-99335886D01*
X152166664Y-99335886D02*
X152199998Y-99402553D01*
X152199998Y-99402553D02*
X152266664Y-99469220D01*
X152266664Y-99469220D02*
X152366664Y-99502553D01*
X152366664Y-99502553D02*
X152533331Y-99502553D01*
X151999998Y-99569220D02*
X151466664Y-99569220D01*
X151299998Y-99502553D02*
X151299998Y-98802553D01*
X151299998Y-98802553D02*
X151033331Y-98802553D01*
X151033331Y-98802553D02*
X150966665Y-98835886D01*
X150966665Y-98835886D02*
X150933331Y-98869220D01*
X150933331Y-98869220D02*
X150899998Y-98935886D01*
X150899998Y-98935886D02*
X150899998Y-99035886D01*
X150899998Y-99035886D02*
X150933331Y-99102553D01*
X150933331Y-99102553D02*
X150966665Y-99135886D01*
X150966665Y-99135886D02*
X151033331Y-99169220D01*
X151033331Y-99169220D02*
X151299998Y-99169220D01*
X150499998Y-99502553D02*
X150566665Y-99469220D01*
X150566665Y-99469220D02*
X150599998Y-99435886D01*
X150599998Y-99435886D02*
X150633331Y-99369220D01*
X150633331Y-99369220D02*
X150633331Y-99169220D01*
X150633331Y-99169220D02*
X150599998Y-99102553D01*
X150599998Y-99102553D02*
X150566665Y-99069220D01*
X150566665Y-99069220D02*
X150499998Y-99035886D01*
X150499998Y-99035886D02*
X150399998Y-99035886D01*
X150399998Y-99035886D02*
X150333331Y-99069220D01*
X150333331Y-99069220D02*
X150299998Y-99102553D01*
X150299998Y-99102553D02*
X150266665Y-99169220D01*
X150266665Y-99169220D02*
X150266665Y-99369220D01*
X150266665Y-99369220D02*
X150299998Y-99435886D01*
X150299998Y-99435886D02*
X150333331Y-99469220D01*
X150333331Y-99469220D02*
X150399998Y-99502553D01*
X150399998Y-99502553D02*
X150499998Y-99502553D01*
X150033332Y-99035886D02*
X149899998Y-99502553D01*
X149899998Y-99502553D02*
X149766665Y-99169220D01*
X149766665Y-99169220D02*
X149633332Y-99502553D01*
X149633332Y-99502553D02*
X149499998Y-99035886D01*
X148966665Y-99469220D02*
X149033332Y-99502553D01*
X149033332Y-99502553D02*
X149166665Y-99502553D01*
X149166665Y-99502553D02*
X149233332Y-99469220D01*
X149233332Y-99469220D02*
X149266665Y-99402553D01*
X149266665Y-99402553D02*
X149266665Y-99135886D01*
X149266665Y-99135886D02*
X149233332Y-99069220D01*
X149233332Y-99069220D02*
X149166665Y-99035886D01*
X149166665Y-99035886D02*
X149033332Y-99035886D01*
X149033332Y-99035886D02*
X148966665Y-99069220D01*
X148966665Y-99069220D02*
X148933332Y-99135886D01*
X148933332Y-99135886D02*
X148933332Y-99202553D01*
X148933332Y-99202553D02*
X149266665Y-99269220D01*
X148633332Y-99502553D02*
X148633332Y-99035886D01*
X148633332Y-99169220D02*
X148599999Y-99102553D01*
X148599999Y-99102553D02*
X148566665Y-99069220D01*
X148566665Y-99069220D02*
X148499999Y-99035886D01*
X148499999Y-99035886D02*
X148433332Y-99035886D01*
X147799999Y-99435886D02*
X147833332Y-99469220D01*
X147833332Y-99469220D02*
X147933332Y-99502553D01*
X147933332Y-99502553D02*
X147999999Y-99502553D01*
X147999999Y-99502553D02*
X148099999Y-99469220D01*
X148099999Y-99469220D02*
X148166666Y-99402553D01*
X148166666Y-99402553D02*
X148199999Y-99335886D01*
X148199999Y-99335886D02*
X148233332Y-99202553D01*
X148233332Y-99202553D02*
X148233332Y-99102553D01*
X148233332Y-99102553D02*
X148199999Y-98969220D01*
X148199999Y-98969220D02*
X148166666Y-98902553D01*
X148166666Y-98902553D02*
X148099999Y-98835886D01*
X148099999Y-98835886D02*
X147999999Y-98802553D01*
X147999999Y-98802553D02*
X147933332Y-98802553D01*
X147933332Y-98802553D02*
X147833332Y-98835886D01*
X147833332Y-98835886D02*
X147799999Y-98869220D01*
X147399999Y-99502553D02*
X147466666Y-99469220D01*
X147466666Y-99469220D02*
X147499999Y-99435886D01*
X147499999Y-99435886D02*
X147533332Y-99369220D01*
X147533332Y-99369220D02*
X147533332Y-99169220D01*
X147533332Y-99169220D02*
X147499999Y-99102553D01*
X147499999Y-99102553D02*
X147466666Y-99069220D01*
X147466666Y-99069220D02*
X147399999Y-99035886D01*
X147399999Y-99035886D02*
X147299999Y-99035886D01*
X147299999Y-99035886D02*
X147233332Y-99069220D01*
X147233332Y-99069220D02*
X147199999Y-99102553D01*
X147199999Y-99102553D02*
X147166666Y-99169220D01*
X147166666Y-99169220D02*
X147166666Y-99369220D01*
X147166666Y-99369220D02*
X147199999Y-99435886D01*
X147199999Y-99435886D02*
X147233332Y-99469220D01*
X147233332Y-99469220D02*
X147299999Y-99502553D01*
X147299999Y-99502553D02*
X147399999Y-99502553D01*
X146866666Y-99035886D02*
X146866666Y-99502553D01*
X146866666Y-99102553D02*
X146833333Y-99069220D01*
X146833333Y-99069220D02*
X146766666Y-99035886D01*
X146766666Y-99035886D02*
X146666666Y-99035886D01*
X146666666Y-99035886D02*
X146599999Y-99069220D01*
X146599999Y-99069220D02*
X146566666Y-99135886D01*
X146566666Y-99135886D02*
X146566666Y-99502553D01*
X146233333Y-99035886D02*
X146233333Y-99502553D01*
X146233333Y-99102553D02*
X146200000Y-99069220D01*
X146200000Y-99069220D02*
X146133333Y-99035886D01*
X146133333Y-99035886D02*
X146033333Y-99035886D01*
X146033333Y-99035886D02*
X145966666Y-99069220D01*
X145966666Y-99069220D02*
X145933333Y-99135886D01*
X145933333Y-99135886D02*
X145933333Y-99502553D01*
X145333333Y-99469220D02*
X145400000Y-99502553D01*
X145400000Y-99502553D02*
X145533333Y-99502553D01*
X145533333Y-99502553D02*
X145600000Y-99469220D01*
X145600000Y-99469220D02*
X145633333Y-99402553D01*
X145633333Y-99402553D02*
X145633333Y-99135886D01*
X145633333Y-99135886D02*
X145600000Y-99069220D01*
X145600000Y-99069220D02*
X145533333Y-99035886D01*
X145533333Y-99035886D02*
X145400000Y-99035886D01*
X145400000Y-99035886D02*
X145333333Y-99069220D01*
X145333333Y-99069220D02*
X145300000Y-99135886D01*
X145300000Y-99135886D02*
X145300000Y-99202553D01*
X145300000Y-99202553D02*
X145633333Y-99269220D01*
X144700000Y-99469220D02*
X144766667Y-99502553D01*
X144766667Y-99502553D02*
X144900000Y-99502553D01*
X144900000Y-99502553D02*
X144966667Y-99469220D01*
X144966667Y-99469220D02*
X145000000Y-99435886D01*
X145000000Y-99435886D02*
X145033333Y-99369220D01*
X145033333Y-99369220D02*
X145033333Y-99169220D01*
X145033333Y-99169220D02*
X145000000Y-99102553D01*
X145000000Y-99102553D02*
X144966667Y-99069220D01*
X144966667Y-99069220D02*
X144900000Y-99035886D01*
X144900000Y-99035886D02*
X144766667Y-99035886D01*
X144766667Y-99035886D02*
X144700000Y-99069220D01*
X144500000Y-99035886D02*
X144233333Y-99035886D01*
X144400000Y-98802553D02*
X144400000Y-99402553D01*
X144400000Y-99402553D02*
X144366667Y-99469220D01*
X144366667Y-99469220D02*
X144300000Y-99502553D01*
X144300000Y-99502553D02*
X144233333Y-99502553D01*
X143900000Y-99502553D02*
X143966667Y-99469220D01*
X143966667Y-99469220D02*
X144000000Y-99435886D01*
X144000000Y-99435886D02*
X144033333Y-99369220D01*
X144033333Y-99369220D02*
X144033333Y-99169220D01*
X144033333Y-99169220D02*
X144000000Y-99102553D01*
X144000000Y-99102553D02*
X143966667Y-99069220D01*
X143966667Y-99069220D02*
X143900000Y-99035886D01*
X143900000Y-99035886D02*
X143800000Y-99035886D01*
X143800000Y-99035886D02*
X143733333Y-99069220D01*
X143733333Y-99069220D02*
X143700000Y-99102553D01*
X143700000Y-99102553D02*
X143666667Y-99169220D01*
X143666667Y-99169220D02*
X143666667Y-99369220D01*
X143666667Y-99369220D02*
X143700000Y-99435886D01*
X143700000Y-99435886D02*
X143733333Y-99469220D01*
X143733333Y-99469220D02*
X143800000Y-99502553D01*
X143800000Y-99502553D02*
X143900000Y-99502553D01*
X143366667Y-99502553D02*
X143366667Y-99035886D01*
X143366667Y-99169220D02*
X143333334Y-99102553D01*
X143333334Y-99102553D02*
X143300000Y-99069220D01*
X143300000Y-99069220D02*
X143233334Y-99035886D01*
X143233334Y-99035886D02*
X143166667Y-99035886D01*
X149566666Y-99929514D02*
X149333333Y-100629514D01*
X149333333Y-100629514D02*
X149099999Y-99929514D01*
X148499999Y-100629514D02*
X148899999Y-100629514D01*
X148699999Y-100629514D02*
X148699999Y-99929514D01*
X148699999Y-99929514D02*
X148766666Y-100029514D01*
X148766666Y-100029514D02*
X148833333Y-100096181D01*
X148833333Y-100096181D02*
X148899999Y-100129514D01*
X148199999Y-100562847D02*
X148166666Y-100596181D01*
X148166666Y-100596181D02*
X148199999Y-100629514D01*
X148199999Y-100629514D02*
X148233332Y-100596181D01*
X148233332Y-100596181D02*
X148199999Y-100562847D01*
X148199999Y-100562847D02*
X148199999Y-100629514D01*
X147733333Y-99929514D02*
X147666666Y-99929514D01*
X147666666Y-99929514D02*
X147599999Y-99962847D01*
X147599999Y-99962847D02*
X147566666Y-99996181D01*
X147566666Y-99996181D02*
X147533333Y-100062847D01*
X147533333Y-100062847D02*
X147499999Y-100196181D01*
X147499999Y-100196181D02*
X147499999Y-100362847D01*
X147499999Y-100362847D02*
X147533333Y-100496181D01*
X147533333Y-100496181D02*
X147566666Y-100562847D01*
X147566666Y-100562847D02*
X147599999Y-100596181D01*
X147599999Y-100596181D02*
X147666666Y-100629514D01*
X147666666Y-100629514D02*
X147733333Y-100629514D01*
X147733333Y-100629514D02*
X147799999Y-100596181D01*
X147799999Y-100596181D02*
X147833333Y-100562847D01*
X147833333Y-100562847D02*
X147866666Y-100496181D01*
X147866666Y-100496181D02*
X147899999Y-100362847D01*
X147899999Y-100362847D02*
X147899999Y-100196181D01*
X147899999Y-100196181D02*
X147866666Y-100062847D01*
X147866666Y-100062847D02*
X147833333Y-99996181D01*
X147833333Y-99996181D02*
X147799999Y-99962847D01*
X147799999Y-99962847D02*
X147733333Y-99929514D01*
D11*
X182357142Y-109650171D02*
X182214285Y-109507314D01*
X182214285Y-109507314D02*
X181928571Y-109364457D01*
X181928571Y-109364457D02*
X181214285Y-109364457D01*
X181214285Y-109364457D02*
X180928571Y-109507314D01*
X180928571Y-109507314D02*
X180785713Y-109650171D01*
X180785713Y-109650171D02*
X180642856Y-109935885D01*
X180642856Y-109935885D02*
X180642856Y-110221600D01*
X180642856Y-110221600D02*
X180785713Y-110650171D01*
X180785713Y-110650171D02*
X182499999Y-112364457D01*
X182499999Y-112364457D02*
X180642856Y-112364457D01*
D12*
X150366665Y-101302553D02*
X150366665Y-101802553D01*
X150366665Y-101802553D02*
X150399998Y-101902553D01*
X150399998Y-101902553D02*
X150466665Y-101969220D01*
X150466665Y-101969220D02*
X150566665Y-102002553D01*
X150566665Y-102002553D02*
X150633332Y-102002553D01*
X150033332Y-101935886D02*
X149999999Y-101969220D01*
X149999999Y-101969220D02*
X150033332Y-102002553D01*
X150033332Y-102002553D02*
X150066665Y-101969220D01*
X150066665Y-101969220D02*
X150033332Y-101935886D01*
X150033332Y-101935886D02*
X150033332Y-102002553D01*
X149699999Y-102002553D02*
X149699999Y-101302553D01*
X149299999Y-102002553D02*
X149599999Y-101602553D01*
X149299999Y-101302553D02*
X149699999Y-101702553D01*
X148899999Y-102002553D02*
X148966666Y-101969220D01*
X148966666Y-101969220D02*
X148999999Y-101935886D01*
X148999999Y-101935886D02*
X149033332Y-101869220D01*
X149033332Y-101869220D02*
X149033332Y-101669220D01*
X149033332Y-101669220D02*
X148999999Y-101602553D01*
X148999999Y-101602553D02*
X148966666Y-101569220D01*
X148966666Y-101569220D02*
X148899999Y-101535886D01*
X148899999Y-101535886D02*
X148799999Y-101535886D01*
X148799999Y-101535886D02*
X148733332Y-101569220D01*
X148733332Y-101569220D02*
X148699999Y-101602553D01*
X148699999Y-101602553D02*
X148666666Y-101669220D01*
X148666666Y-101669220D02*
X148666666Y-101869220D01*
X148666666Y-101869220D02*
X148699999Y-101935886D01*
X148699999Y-101935886D02*
X148733332Y-101969220D01*
X148733332Y-101969220D02*
X148799999Y-102002553D01*
X148799999Y-102002553D02*
X148899999Y-102002553D01*
X148366666Y-101535886D02*
X148366666Y-102235886D01*
X148366666Y-101569220D02*
X148299999Y-101535886D01*
X148299999Y-101535886D02*
X148166666Y-101535886D01*
X148166666Y-101535886D02*
X148099999Y-101569220D01*
X148099999Y-101569220D02*
X148066666Y-101602553D01*
X148066666Y-101602553D02*
X148033333Y-101669220D01*
X148033333Y-101669220D02*
X148033333Y-101869220D01*
X148033333Y-101869220D02*
X148066666Y-101935886D01*
X148066666Y-101935886D02*
X148099999Y-101969220D01*
X148099999Y-101969220D02*
X148166666Y-102002553D01*
X148166666Y-102002553D02*
X148299999Y-102002553D01*
X148299999Y-102002553D02*
X148366666Y-101969220D01*
X147433333Y-102002553D02*
X147433333Y-101635886D01*
X147433333Y-101635886D02*
X147466666Y-101569220D01*
X147466666Y-101569220D02*
X147533333Y-101535886D01*
X147533333Y-101535886D02*
X147666666Y-101535886D01*
X147666666Y-101535886D02*
X147733333Y-101569220D01*
X147433333Y-101969220D02*
X147500000Y-102002553D01*
X147500000Y-102002553D02*
X147666666Y-102002553D01*
X147666666Y-102002553D02*
X147733333Y-101969220D01*
X147733333Y-101969220D02*
X147766666Y-101902553D01*
X147766666Y-101902553D02*
X147766666Y-101835886D01*
X147766666Y-101835886D02*
X147733333Y-101769220D01*
X147733333Y-101769220D02*
X147666666Y-101735886D01*
X147666666Y-101735886D02*
X147500000Y-101735886D01*
X147500000Y-101735886D02*
X147433333Y-101702553D01*
X147000000Y-102002553D02*
X147066667Y-101969220D01*
X147066667Y-101969220D02*
X147100000Y-101902553D01*
X147100000Y-101902553D02*
X147100000Y-101302553D01*
X146433333Y-102002553D02*
X146433333Y-101635886D01*
X146433333Y-101635886D02*
X146466666Y-101569220D01*
X146466666Y-101569220D02*
X146533333Y-101535886D01*
X146533333Y-101535886D02*
X146666666Y-101535886D01*
X146666666Y-101535886D02*
X146733333Y-101569220D01*
X146433333Y-101969220D02*
X146500000Y-102002553D01*
X146500000Y-102002553D02*
X146666666Y-102002553D01*
X146666666Y-102002553D02*
X146733333Y-101969220D01*
X146733333Y-101969220D02*
X146766666Y-101902553D01*
X146766666Y-101902553D02*
X146766666Y-101835886D01*
X146766666Y-101835886D02*
X146733333Y-101769220D01*
X146733333Y-101769220D02*
X146666666Y-101735886D01*
X146666666Y-101735886D02*
X146500000Y-101735886D01*
X146500000Y-101735886D02*
X146433333Y-101702553D01*
X150133333Y-103129514D02*
X150533333Y-103129514D01*
X150333333Y-103129514D02*
X150333333Y-102429514D01*
X150333333Y-102429514D02*
X150400000Y-102529514D01*
X150400000Y-102529514D02*
X150466667Y-102596181D01*
X150466667Y-102596181D02*
X150533333Y-102629514D01*
X149866666Y-102496181D02*
X149833333Y-102462847D01*
X149833333Y-102462847D02*
X149766666Y-102429514D01*
X149766666Y-102429514D02*
X149600000Y-102429514D01*
X149600000Y-102429514D02*
X149533333Y-102462847D01*
X149533333Y-102462847D02*
X149500000Y-102496181D01*
X149500000Y-102496181D02*
X149466666Y-102562847D01*
X149466666Y-102562847D02*
X149466666Y-102629514D01*
X149466666Y-102629514D02*
X149500000Y-102729514D01*
X149500000Y-102729514D02*
X149900000Y-103129514D01*
X149900000Y-103129514D02*
X149466666Y-103129514D01*
X149166666Y-103062847D02*
X149133333Y-103096181D01*
X149133333Y-103096181D02*
X149166666Y-103129514D01*
X149166666Y-103129514D02*
X149199999Y-103096181D01*
X149199999Y-103096181D02*
X149166666Y-103062847D01*
X149166666Y-103062847D02*
X149166666Y-103129514D01*
X148866666Y-102496181D02*
X148833333Y-102462847D01*
X148833333Y-102462847D02*
X148766666Y-102429514D01*
X148766666Y-102429514D02*
X148600000Y-102429514D01*
X148600000Y-102429514D02*
X148533333Y-102462847D01*
X148533333Y-102462847D02*
X148500000Y-102496181D01*
X148500000Y-102496181D02*
X148466666Y-102562847D01*
X148466666Y-102562847D02*
X148466666Y-102629514D01*
X148466666Y-102629514D02*
X148500000Y-102729514D01*
X148500000Y-102729514D02*
X148900000Y-103129514D01*
X148900000Y-103129514D02*
X148466666Y-103129514D01*
X148033333Y-102429514D02*
X147966666Y-102429514D01*
X147966666Y-102429514D02*
X147899999Y-102462847D01*
X147899999Y-102462847D02*
X147866666Y-102496181D01*
X147866666Y-102496181D02*
X147833333Y-102562847D01*
X147833333Y-102562847D02*
X147799999Y-102696181D01*
X147799999Y-102696181D02*
X147799999Y-102862847D01*
X147799999Y-102862847D02*
X147833333Y-102996181D01*
X147833333Y-102996181D02*
X147866666Y-103062847D01*
X147866666Y-103062847D02*
X147899999Y-103096181D01*
X147899999Y-103096181D02*
X147966666Y-103129514D01*
X147966666Y-103129514D02*
X148033333Y-103129514D01*
X148033333Y-103129514D02*
X148099999Y-103096181D01*
X148099999Y-103096181D02*
X148133333Y-103062847D01*
X148133333Y-103062847D02*
X148166666Y-102996181D01*
X148166666Y-102996181D02*
X148199999Y-102862847D01*
X148199999Y-102862847D02*
X148199999Y-102696181D01*
X148199999Y-102696181D02*
X148166666Y-102562847D01*
X148166666Y-102562847D02*
X148133333Y-102496181D01*
X148133333Y-102496181D02*
X148099999Y-102462847D01*
X148099999Y-102462847D02*
X148033333Y-102429514D01*
X147533332Y-102496181D02*
X147499999Y-102462847D01*
X147499999Y-102462847D02*
X147433332Y-102429514D01*
X147433332Y-102429514D02*
X147266666Y-102429514D01*
X147266666Y-102429514D02*
X147199999Y-102462847D01*
X147199999Y-102462847D02*
X147166666Y-102496181D01*
X147166666Y-102496181D02*
X147133332Y-102562847D01*
X147133332Y-102562847D02*
X147133332Y-102629514D01*
X147133332Y-102629514D02*
X147166666Y-102729514D01*
X147166666Y-102729514D02*
X147566666Y-103129514D01*
X147566666Y-103129514D02*
X147133332Y-103129514D01*
X146533332Y-102662847D02*
X146533332Y-103129514D01*
X146699999Y-102396181D02*
X146866665Y-102896181D01*
X146866665Y-102896181D02*
X146433332Y-102896181D01*
D11*
X116499999Y-109364457D02*
X114642856Y-109364457D01*
X114642856Y-109364457D02*
X115642856Y-110507314D01*
X115642856Y-110507314D02*
X115214285Y-110507314D01*
X115214285Y-110507314D02*
X114928571Y-110650171D01*
X114928571Y-110650171D02*
X114785713Y-110793028D01*
X114785713Y-110793028D02*
X114642856Y-111078742D01*
X114642856Y-111078742D02*
X114642856Y-111793028D01*
X114642856Y-111793028D02*
X114785713Y-112078742D01*
X114785713Y-112078742D02*
X114928571Y-112221600D01*
X114928571Y-112221600D02*
X115214285Y-112364457D01*
X115214285Y-112364457D02*
X116071428Y-112364457D01*
X116071428Y-112364457D02*
X116357142Y-112221600D01*
X116357142Y-112221600D02*
X116499999Y-112078742D01*
X114928571Y-98364457D02*
X114928571Y-100364457D01*
X115642856Y-97221600D02*
X116357142Y-99364457D01*
X116357142Y-99364457D02*
X114499999Y-99364457D01*
M02*
