M48
; DRILL file {KiCad 8.0.5} date 2024-12-30T19:17:48+0100
; FORMAT={-:-/ absolute / inch / decimal}
; #@! TF.CreationDate,2024-12-30T19:17:48+01:00
; #@! TF.GenerationSoftware,Kicad,Pcbnew,8.0.5
; #@! TF.FileFunction,Plated,1,2,PTH
FMAT,2
INCH
; #@! TA.AperFunction,Plated,PTH,ComponentDrill
T1C0.0394
; #@! TA.AperFunction,Plated,PTH,ComponentDrill
T2C0.0433
%
G90
G05
T2
X5.5315Y-4.2323
X5.7283Y-4.2323
T1
G00X4.7323Y-3.8346
M15
G01X4.7323Y-3.9213
M16
G05
G00X4.7323Y-4.3071
M15
G01X4.7323Y-4.3937
M16
G05
G00X4.9094Y-4.0669
M15
G01X4.8228Y-4.0669
M16
G05
G00X4.9094Y-4.5394
M15
G01X4.8228Y-4.5394
M16
G05
G00X4.9803Y-3.8268
M15
G01X4.9803Y-3.9291
M16
G05
G00X4.9803Y-4.2992
M15
G01X4.9803Y-4.4016
M16
G05
G00X6.7126Y-3.9685
M15
G01X6.7126Y-3.8661
M16
G05
G00X6.7126Y-4.4409
M15
G01X6.7126Y-4.3386
M16
G05
G00X6.7835Y-3.7283
M15
G01X6.8701Y-3.7283
M16
G05
G00X6.7835Y-4.2008
M15
G01X6.8701Y-4.2008
M16
G05
G00X6.9606Y-3.9606
M15
G01X6.9606Y-3.874
M16
G05
G00X6.9606Y-4.4331
M15
G01X6.9606Y-4.3465
M16
G05
M30
